<svg width="32" height="32" viewBox="0 0 32 32" fill="none" xmlns="http://www.w3.org/2000/svg">
<path d="M28 16C28 22.6274 22.6274 28 16 28C9.37258 28 4 22.6274 4 16C4 9.37258 9.37258 4 16 4C22.6274 4 28 9.37258 28 16Z" fill="black"/>
<path d="M16.75 10.6667C16.75 10.2525 16.4142 9.91667 16 9.91667C15.5858 9.91667 15.25 10.2525 15.25 10.6667H16.75ZM15.25 21.3333C15.25 21.7475 15.5858 22.0833 16 22.0833C16.4142 22.0833 16.75 21.7475 16.75 21.3333H15.25ZM10.6667 15.25C10.2525 15.25 9.91667 15.5858 9.91667 16C9.91667 16.4142 10.2525 16.75 10.6667 16.75V15.25ZM21.3333 16.75C21.7475 16.75 22.0833 16.4142 22.0833 16C22.0833 15.5858 21.7475 15.25 21.3333 15.25V16.75ZM15.25 10.6667V21.3333H16.75V10.6667H15.25ZM10.6667 16.75H21.3333V15.25H10.6667V16.75ZM27.25 16C27.25 22.2132 22.2132 27.25 16 27.25V28.75C23.0416 28.75 28.75 23.0416 28.75 16H27.25ZM16 27.25C9.7868 27.25 4.75 22.2132 4.75 16H3.25C3.25 23.0416 8.95837 28.75 16 28.75V27.25ZM4.75 16C4.75 9.7868 9.7868 4.75 16 4.75V3.25C8.95837 3.25 3.25 8.95837 3.25 16H4.75ZM16 4.75C22.2132 4.75 27.25 9.7868 27.25 16H28.75C28.75 8.95837 23.0416 3.25 16 3.25V4.75Z" fill="white"/>
</svg>
