<svg width="32" height="32" viewBox="0 0 32 32" fill="none" xmlns="http://www.w3.org/2000/svg">
<path d="M12.9364 20.75H19.0636V19.25H12.9364V20.75ZM19.0636 20.75C21.3757 20.75 23.25 22.6243 23.25 24.9364H24.75C24.75 21.7959 22.2041 19.25 19.0636 19.25V20.75ZM12.9364 19.25C9.79587 19.25 7.25 21.7959 7.25 24.9364H8.75C8.75 22.6243 10.6243 20.75 12.9364 20.75V19.25ZM19.25 12C19.25 13.7949 17.7949 15.25 16 15.25V16.75C18.6234 16.75 20.75 14.6234 20.75 12H19.25ZM16 15.25C14.2051 15.25 12.75 13.7949 12.75 12H11.25C11.25 14.6234 13.3766 16.75 16 16.75V15.25ZM12.75 12C12.75 10.2051 14.2051 8.75 16 8.75V7.25C13.3766 7.25 11.25 9.37665 11.25 12H12.75ZM16 8.75C17.7949 8.75 19.25 10.2051 19.25 12H20.75C20.75 9.37665 18.6234 7.25 16 7.25V8.75ZM27.25 16C27.25 22.2132 22.2132 27.25 16 27.25V28.75C23.0416 28.75 28.75 23.0416 28.75 16H27.25ZM16 27.25C9.7868 27.25 4.75 22.2132 4.75 16H3.25C3.25 23.0416 8.95837 28.75 16 28.75V27.25ZM4.75 16C4.75 9.7868 9.7868 4.75 16 4.75V3.25C8.95837 3.25 3.25 8.95837 3.25 16H4.75ZM16 4.75C22.2132 4.75 27.25 9.7868 27.25 16H28.75C28.75 8.95837 23.0416 3.25 16 3.25V4.75Z" fill="black"/>
</svg>
