<svg width="32" height="32" viewBox="0 0 32 32" fill="none" xmlns="http://www.w3.org/2000/svg">
<path d="M24 24V8H8V24C8 25.4728 9.19391 26.6667 10.6667 26.6667H21.3333C22.8061 26.6667 24 25.4728 24 24Z" fill="black"/>
<path d="M20 8V6.66667C20 5.19391 18.8061 4 17.3333 4H14.6667C13.1939 4 12 5.19391 12 6.66667V8M20 8H22C23.1046 8 24 8.89543 24 10V24C24 25.4728 22.8061 26.6667 21.3333 26.6667H10.6667C9.19391 26.6667 8 25.4728 8 24V10C8 8.89543 8.89543 8 10 8H12M20 8H12M5.33333 8H26.6667M13.3333 13.3333V17.3333M13.3333 21.3333V17.3333M18.6667 13.3333V21.3333M13.3333 17.3333V21.5" stroke="black" stroke-width="1.5" stroke-linecap="round" stroke-linejoin="round"/>
<path d="M13 13V21M13 13V21" stroke="white" stroke-width="1.5" stroke-linecap="round"/>
<path d="M19 13V21" stroke="white" stroke-width="1.5" stroke-linecap="round"/>
</svg>
